<?xml version="1.0" encoding="utf-8"?>
<!-- Generator: Adobe Illustrator 16.0.0, SVG Export Plug-In . SVG Version: 6.00 Build 0)  -->
<!DOCTYPE svg PUBLIC "-//W3C//DTD SVG 1.1//EN" "http://www.w3.org/Graphics/SVG/1.1/DTD/svg11.dtd">
<svg version="1.1" id="Calque_1" xmlns="http://www.w3.org/2000/svg" xmlns:xlink="http://www.w3.org/1999/xlink" x="0px" y="0px"
	 width="841.89px" height="595.281px" viewBox="0 0 841.89 595.281" enable-background="new 0 0 841.89 595.281"
	 xml:space="preserve">
<path d="M521.624,271.812c-3.827,10.004-14.879,9.67-24.126,7.169c-7.216-1.952-14.166-5.309-20.519-9.53
	c11.949-7.809,22.342-26.693,12.534-40.024c-8.966-12.187-31.117-9.189-40.979,0.554c-8.188,8.088-4.101,20.083,1.729,28.155
	c2.465,3.413,5.288,6.618,8.378,9.597c-5.281,1.953-10.598,3.314-15.02,4.248c-22.903,4.833-47.534,2.289-69.877-4.035
	c-20.646-5.843-40.603-15.803-52-34.693c-2.167-3.592-4.007-7.499-5.355-11.567c6.74-1.356,13.397-3.077,19.841-5.416
	c8.536-3.098,19.386-8.145,21.661-17.933c2.95-12.692-11.753-27.039-23.292-28.215c-12.179-1.241-21.676,8.691-26.56,18.834
	c-3.741,7.769-4.596,16.349-3.572,24.763c-21.586,3.653-43.729,4.804-65.527,5.315c-2.497,0.059-4.996,0.105-7.494,0.107
	c-6.448,0.005-6.449,10.005,0,10c21.497-0.017,43.145-1.442,64.455-4.207c3.515-0.456,7.042-0.943,10.564-1.493
	c12.648,43.918,65.985,59.188,106.594,60.792c18.139,0.717,37.42-1.599,54.09-9.361c7.817,5.734,16.628,10.209,25.519,13.104
	c15.088,4.914,32.308,2.94,38.599-13.505C533.575,268.437,523.904,265.852,521.624,271.812z M314.443,201.542
	c1.639-10.012,11.103-26.233,23.223-20.145c4.667,2.344,9.437,8.161,10.495,12.352c0.515,2.038-0.133,3.859-2.568,6.238
	c-6.82,6.665-20.011,9.462-29.72,11.554c-0.552,0.119-1.108,0.226-1.661,0.341C313.838,208.438,313.883,204.964,314.443,201.542z
	 M464.292,259.161c-3.602-3.529-7.473-8.185-9.242-12.485c-0.885-2.152-1.193-3.698-1.208-5.318c-0.01-1.156,0.479-2.784,1.075-3.54
	c3.582-4.541,11.638-6.073,17.386-6.211c6.663-0.16,10.891,3.708,10.9,10.33c0.014,9.659-6.361,16.439-14.575,21.188
	C467.131,261.842,465.679,260.521,464.292,259.161z"/>
<path d="M742.266,280.812c-2.003-6.097-11.662-3.486-9.643,2.658c11.835,36.016-22.219,59.76-50.743,72.943
	c-37.479,17.323-78.495,23.782-119.554,21.538c-55.494-3.032-109.357-20.486-161.201-39.403c-27.478-10.026-54.605-21-81.436-32.644
	c-12.765-5.541-25.442-11.277-38.086-17.088c-11.717-5.385-23.292-11.125-32.623-20.211c-4.621-4.499-11.698,2.566-7.071,7.071
	c9.971,9.708,22.127,16,34.647,21.775c14.405,6.645,28.883,13.126,43.45,19.408c29.167,12.578,58.698,24.281,88.599,34.998
	c57.471,20.599,117.806,38.056,179.43,36.491c37.492-0.952,75.605-10.696,108.819-28.199c15.146-7.981,29.625-18.446,39.356-32.746
	C745.634,313.557,747.454,296.597,742.266,280.812z"/>
<path d="M710.646,168.017c-9.136-14.954-26.4-29.263-43.872-32.697c-3.56-0.7-7.352,2.269-6.15,6.15
	c4.083,13.203,16.522,21.986,28.298,27.988c3.572,1.821,6.883-0.843,7.48-3.818c6.371,7.121,10.771,15.328,10.242,25.319
	c-1.119,21.186-26.507,32.847-44.37,36.165c-15.572,2.892-32.273,0.116-45.33-8.979c-11.399-7.94-18.506-20.819-22.064-33.976
	c-9.42-34.826,5.413-75.852,38.089-92.71c5.732-2.958,0.674-11.586-5.047-8.635c-28.828,14.873-44.725,46.096-45.689,77.803
	c-0.899,29.585,12.846,60.779,41.441,72.527c27.155,11.156,64.129,3.544,83.313-19.074
	C718.203,200.858,719.675,182.795,710.646,168.017z M688.128,157.65c-3.534-2.064-7.052-4.449-10.075-7.243
	C681.624,152.488,684.985,154.973,688.128,157.65z"/>
<path d="M112.445,108.141c-0.728,10.921-7.583,22.327-18.063,26.407c-10.989,4.278-22.229-3.504-26.146-13.755
	c-3.792-9.922-1.768-21.201,1.103-31.066c2.986-10.264,7.77-20.017,13.424-29.062c3.429-5.485-5.226-10.5-8.635-5.047
	c-12.901,20.635-26.353,52.412-11.841,75.423c7.789,12.349,23.586,18.234,37.127,12.187c13.647-6.095,22.059-20.5,23.031-35.086
	C122.874,101.7,112.871,101.741,112.445,108.141z"/>
<path d="M186.417,129.23c-2.826-13.192-10.39-28.911-20.643-37.985c-4.13-3.655-9.951-5.258-15.176-6.602
	c-7.415-1.907-15.109-2.917-22.737-3.442c-12.407-0.852-30.727-1.017-39.668,9.378c-4.371,5.082-4.7,11.75-2.569,17.891
	c2.101,6.053,11.763,3.451,9.643-2.658c-1.524-4.392-1.464-7.699,2.192-10.218c4.623-3.184,10.82-3.975,16.273-4.405
	c13.382-1.054,27.817,0.529,40.511,4.984c4.001,1.404,6.07,3.219,9.007,7.142c4.291,5.729,7.813,12.227,10.473,18.863
	c2.167,5.404,4.577,12.104,3.774,18.042c-0.817,6.041-5.563,6.499-11.052,5.921c-6.411-0.674-6.346,9.333,0,10
	c7.202,0.757,14.3-0.884,18.488-7.193C188.677,143.306,187.749,135.446,186.417,129.23z"/>
</svg>
